<?xml version="1.0" encoding="UTF-8" standalone="no"?>
<svg
   xmlns:dc="http://purl.org/dc/elements/1.1/"
   xmlns:cc="http://creativecommons.org/ns#"
   xmlns:rdf="http://www.w3.org/1999/02/22-rdf-syntax-ns#"
   xmlns:svg="http://www.w3.org/2000/svg"
   xmlns="http://www.w3.org/2000/svg"
   xmlns:sodipodi="http://sodipodi.sourceforge.net/DTD/sodipodi-0.dtd"
   xmlns:inkscape="http://www.inkscape.org/namespaces/inkscape"
   width="307.37762"
   height="166"
   viewBox="0 0 245.9021 132.8"
   version="1.1"
   id="svg2"
   inkscape:version="0.48.4 r9939"
   sodipodi:docname="Vitalogy.svg">
  <metadata
     id="metadata60">
    <rdf:RDF>
      <cc:Work
         rdf:about="">
        <dc:format>image/svg+xml</dc:format>
        <dc:type
           rdf:resource="http://purl.org/dc/dcmitype/StillImage" />
      </cc:Work>
    </rdf:RDF>
  </metadata>
  <defs
     id="defs58" />
  <sodipodi:namedview
     pagecolor="#ffffff"
     bordercolor="#666666"
     borderopacity="1"
     objecttolerance="10"
     gridtolerance="10"
     guidetolerance="10"
     inkscape:pageopacity="0"
     inkscape:pageshadow="2"
     inkscape:window-width="1627"
     inkscape:window-height="1026"
     id="namedview56"
     showgrid="false"
     inkscape:zoom="0.57536946"
     inkscape:cx="844.983"
     inkscape:cy="166.35239"
     inkscape:window-x="53"
     inkscape:window-y="375"
     inkscape:window-maximized="1"
     inkscape:current-layer="svg2"
     fit-margin-top="0"
     fit-margin-left="0"
     fit-margin-right="0"
     fit-margin-bottom="0" />
  <g
     id="g3000"
     transform="matrix(0.40387961,0,0,0.40387961,-54.273342,-35.251333)">
    <path
       style="fill:#a88231;fill-opacity:1"
       id="path6"
       d="m 267.98,92.8 c 6.21,-1.27 11.99,-4.07 18.2,-5.31 5.54,-0.5 12.13,-0.46 15.89,4.35 -2.03,1.45 -4.05,2.95 -6.41,3.79 -10.18,3.64 -19.97,8.75 -28.08,15.97 -5.07,4.39 -8.75,10.08 -12.16,15.79 -4.19,7.91 -6.48,16.64 -8.89,25.21 -6.74,25.46 -11.76,51.33 -17.58,77.01 -6.83,32.24 -14.1,64.39 -20.92,96.63 -1.35,5.44 -2.94,10.83 -3.54,16.42 4.58,-3.23 7.39,-8.16 10.48,-12.7 35.24,-51.09 68.12,-103.82 97.54,-158.49 4.47,-7.52 8.49,-15.39 10.99,-23.8 2.97,-8.37 3.5,-17.33 4.13,-26.12 6.5,0.62 12.89,2.01 19.37,2.79 14.35,0.69 28.67,-2.23 42.18,-6.91 31.54,-12.37 63.77,-24.27 97.67,-27.92 3.39,0.02 6.78,-0.07 10.15,-0.45 13.04,-1.06 25.91,1.98 38.37,5.44 4.34,1.39 8.4,3.52 12.35,5.78 5.9,3.11 11.8,6.72 15.96,12.06 2.66,3.35 5.86,6.31 7.95,10.09 5.91,10.9 8.11,24.23 3.75,36.09 -2.31,8.32 -8.63,14.67 -15.61,19.36 -10.01,6.36 -22.97,6.28 -33.8,2.11 -5.71,-2.52 -10.57,-6.68 -14.69,-11.31 -7.06,-8 -9.26,-19.97 -5.5,-29.96 4,-11.98 20.08,-18.08 30.92,-11.47 5.45,3 10.57,8.14 10.6,14.76 -0.23,4.63 -0.47,9.85 -3.93,13.35 -2.99,3.56 -8.08,4.91 -12.39,3.08 2.85,-3.76 7.33,-6.68 8.26,-11.6 0.94,-4.74 -1,-10.15 -5.11,-12.82 -3.7,-1.69 -8.03,-1.91 -11.95,-0.94 -5.88,1.41 -9.61,7.29 -10.61,12.92 -1.53,15.54 12.7,29.7 28.01,29.61 16.03,-0.25 29.12,-16.83 26.11,-32.51 -1.34,-9.92 -7.57,-18.41 -14.96,-24.83 -5.5,-4.09 -11.45,-7.78 -18,-9.92 -10.31,-2.76 -21,-4.36 -31.69,-3.53 -11.9,0.19 -23.36,3.66 -34.75,6.72 -40.77,12.88 -77.89,35.2 -111.8,60.91 -22.53,19.96 -40.92,43.99 -59.4,67.61 -6.95,10.33 -14.6,20.18 -21.48,30.56 -4.45,7.41 -10.13,13.98 -14.53,21.42 -15.34,23.14 -30.28,46.51 -45.03,70.01 -6.09,8.25 -7.04,19.12 -5.9,29.02 0.66,6.23 3.91,11.72 6.6,17.25 -1.75,0.6 -3.51,1.75 -5.43,1.27 -10.34,-2.17 -20.71,-5.23 -31.38,-4.63 -6.68,0.26 -13.28,1.57 -19.66,3.51 -4.77,1.47 -8.8,4.67 -13.59,6.09 -4.05,0.81 -7.68,-2.1 -10.31,-4.84 6.96,-3.9 12.86,-9.28 18.68,-14.66 4.13,-4.67 8.17,-9.63 10.47,-15.5 2.27,-6.56 4.99,-13.01 6.21,-19.88 12.11,-59.97 23.86,-120 36.02,-179.97 2.81,-17.65 8.36,-34.82 9.9,-52.68 0.32,-6.06 0.5,-12.6 -2.75,-18 -2.48,-4.06 -7.24,-5.59 -11.2,-7.75 1.6,-5.28 7.86,-5.93 12.55,-5.63 6.84,0.77 13.7,1.16 20.57,1.56 11.19,-0.04 22.23,-2.16 33.15,-4.41 z"
       inkscape:connector-curvature="0" />
    <path
       style="fill:#a88231;fill-opacity:1"
       id="path8"
       d="m 373.85,294.08 c 4.31,0.99 8.75,0.98 13.15,0.92 6.3,-0.11 12.67,0.44 18.88,-0.91 1.5,4.33 3.01,8.66 4.39,13.03 -0.95,0.22 -1.9,0.45 -2.84,0.68 -1.51,-3.01 -2.94,-6.36 -5.87,-8.26 -2.57,-1.61 -5.73,-1.44 -8.63,-1.7 -0.26,12.28 -0.23,24.57 -0.02,36.85 2.27,0.95 4.83,1.7 6.11,4.02 -5.31,0.38 -10.65,0.54 -15.96,0.17 -0.63,-0.47 -1.88,-1.39 -2.5,-1.85 1.97,-0.7 3.98,-1.31 5.99,-1.93 0.58,-12.4 0.35,-24.83 0.14,-37.24 -3.01,0.25 -6.35,0.05 -8.89,1.96 -2.61,1.9 -3.98,4.92 -5.46,7.68 -0.69,0.04 -2.07,0.12 -2.77,0.16 1.01,-4.65 2.64,-9.13 4.28,-13.58 z"
       inkscape:connector-curvature="0" />
    <path
       transform="scale(0.8,0.8)"
       style="fill:#a88231;fill-opacity:1"
       id="path10"
       d="m 645.5,367.4375 c -2.09492,0.0539 -4.15937,0.32187 -6.1875,0.84375 -7.1,1.7125 -13.59375,6.1875 -17.34375,12.5 -3.9875,6.5625 -4.80625,14.63125 -3.46875,22.09375 1.775,9.4875 8.7875,18.03125 18.125,20.84375 8.5375,2.5875 18.4875,1.59375 25.75,-3.84375 14.625,-10.6625 15.10625,-35.64375 0.65625,-46.65625 -4.90312,-4.02187 -11.24648,-5.94297 -17.53125,-5.78125 z m 0.78125,3.71875 c 5.86348,-0.0287 11.7625,2.575 14.59375,7.9375 6.0375,11.0125 5.775,25.91875 -2,36.03125 -5.7375,7.4875 -17.70625,8.075 -24.59375,1.875 -7.5,-6.5375 -8.79375,-17.425 -7.40625,-26.75 0.975,-7.8375 5.75,-15.85 13.6875,-18.1875 1.82812,-0.58438 3.76426,-0.89668 5.71875,-0.90625 z"
       inkscape:connector-curvature="0" />
    <path
       style="fill:#a88231;fill-opacity:1"
       id="path12"
       d="m 547.53,306.55 c 3.23,-6.7 9.88,-11.94 17.42,-12.52 5.77,-0.86 11.23,3.16 16.94,1.07 1.17,4.63 2.23,9.28 3.23,13.95 -0.93,0.28 -1.86,0.56 -2.78,0.85 -2.08,-4.31 -4.32,-9.04 -8.73,-11.39 -4.77,-2.71 -11.11,-1.71 -15.02,2.05 -9.05,8.52 -8.73,25.03 0.76,33.09 5.26,4.52 13.82,4.47 18.83,-0.39 2.38,-2.71 1.84,-6.72 1.49,-10.01 -0.2,-3.28 -4.11,-2.98 -6.43,-3.74 -0.04,-0.62 -0.11,-1.85 -0.15,-2.47 5.98,-0.09 11.96,-0.03 17.95,-0.05 -0.01,0.69 -0.02,2.07 -0.03,2.76 -1.62,0.27 -3.23,0.54 -4.83,0.84 -0.67,6.36 -0.19,12.76 -0.64,19.14 -1.88,-1.1 -3.55,-2.47 -5.09,-3.99 -4.67,2.6 -9.89,4.76 -15.35,4.27 -8.96,-0.55 -16.77,-7.66 -18.91,-16.26 -1.44,-5.66 -1.12,-11.86 1.34,-17.2 z"
       inkscape:connector-curvature="0" />
    <path
       style="fill:#a88231;fill-opacity:1"
       id="path14"
       d="m 302.3,295.29 c 5.56,-0.5 11.14,-0.29 16.71,-0.27 -0.02,0.64 -0.04,1.91 -0.05,2.54 -1.65,0.43 -3.28,0.88 -4.91,1.36 3.66,11.06 8.1,21.86 12.56,32.62 4.29,-10.88 9.06,-21.63 12.48,-32.82 -1.63,-0.39 -3.27,-0.75 -4.9,-1.1 -0.03,-0.64 -0.07,-1.94 -0.09,-2.58 4.83,-0.08 9.69,-0.2 14.51,0.28 -2.48,2.62 -5.72,4.75 -6.9,8.35 -4.7,11.76 -9.55,23.47 -14.19,35.26 -1.4,0.03 -2.8,0.05 -4.19,0.07 -4.86,-11.98 -9.69,-23.98 -14.56,-35.96 -1.2,-3.29 -4.23,-5.24 -6.47,-7.75 z"
       inkscape:connector-curvature="0" />
    <path
       style="fill:#a88231;fill-opacity:1"
       id="path16"
       d="m 349.55,296.99 c 0.63,-0.47 1.88,-1.4 2.51,-1.87 5.04,-0.4 10.1,-0.03 15.16,-0.12 -0.06,0.66 -0.16,1.96 -0.22,2.61 -1.7,0.47 -3.39,0.95 -5.06,1.47 -0.32,8.97 -0.08,17.95 -0.2,26.92 0.04,2.81 -0.18,5.69 0.54,8.44 1.09,1.41 3.16,1.42 4.7,2.1 0.06,0.61 0.19,1.84 0.25,2.45 -5.06,-0.08 -10.13,0.28 -15.17,-0.11 -0.63,-0.47 -1.88,-1.4 -2.51,-1.87 2,-0.68 4.04,-1.28 6.07,-1.87 0.4,-12.09 0.4,-24.2 0,-36.28 -2.03,-0.6 -4.07,-1.19 -6.07,-1.87 z"
       inkscape:connector-curvature="0" />
    <path
       transform="scale(0.8,0.8)"
       style="fill:#a88231;fill-opacity:1"
       id="path18"
       d="m 535.25,368.65625 c -5.7,14.9375 -11.19375,29.95625 -16.84375,44.90625 -1.425,4.175 -5.23125,6.68125 -8.03125,9.84375 5.7875,0.5125 11.60625,0.36875 17.40625,0.34375 -0.0625,-0.8 -0.21875,-2.3875 -0.28125,-3.1875 -1.9,-0.6375 -3.75,-1.3125 -5.625,-2 1.475,-5.375 3.4,-10.5875 5.1875,-15.875 6.4625,-0.25 12.9625,-0.175 19.4375,-0.1875 1.9625,5.2875 3.8,10.6375 5.1875,16.125 -1.8125,0.6625 -3.6125,1.3 -5.4375,1.9375 -0.075,0.8 -0.20625,2.3875 -0.28125,3.1875 6.7625,-0.025 13.55,0.21875 20.3125,-0.28125 -3.025,-3.525 -6.93125,-6.54375 -8.34375,-11.15625 -5.3,-14.4875 -10.74375,-28.91875 -16.03125,-43.40625 -2.225,-0.1 -4.45625,-0.1875 -6.65625,-0.25 z m 1.6875,7.40625 c 2.7625,7.5125 5.4,15.09375 8.0625,22.65625 -5.45,0.05 -10.89375,0.0375 -16.34375,0 2.65,-7.5875 5.28125,-15.20625 8.28125,-22.65625 z"
       inkscape:connector-curvature="0" />
    <path
       style="fill:#a88231;fill-opacity:1"
       id="path20"
       d="m 454.83,294.99 c 5.74,0.02 11.48,-0.03 17.22,0.04 -0.05,0.62 -0.13,1.86 -0.18,2.48 -1.66,0.41 -3.36,0.74 -4.95,1.4 -0.94,2.92 -0.62,6.06 -0.68,9.09 0.16,9.26 -0.18,18.54 0.24,27.8 4.61,0.25 9.55,0.69 13.77,-1.57 3.86,-1.87 6.05,-5.74 8.1,-9.3 0.7,0 2.12,0 2.83,0.01 -1.46,4.76 -3.16,9.45 -4.97,14.09 -10.47,-0.06 -20.94,-0.02 -31.41,-0.03 0.05,-0.63 0.14,-1.88 0.19,-2.51 1.61,-0.64 3.81,-0.47 4.97,-1.91 0.73,-3.48 0.36,-7.06 0.43,-10.59 -0.18,-8.5 0.31,-17.02 -0.36,-25.51 -1.71,-0.25 -3.42,-0.48 -5.12,-0.71 -0.02,-0.69 -0.06,-2.08 -0.08,-2.78 z"
       inkscape:connector-curvature="0" />
    <path
       style="fill:#a88231;fill-opacity:1"
       id="path22"
       d="m 592.83,295.05 c 5.53,-0.1 11.06,-0.04 16.6,-0.05 -0.03,0.69 -0.08,2.06 -0.1,2.75 -1.57,0.25 -3.14,0.52 -4.69,0.8 2.93,6.41 6.53,12.49 9.95,18.65 3.53,-6.14 7.08,-12.28 10.31,-18.59 -1.57,-0.34 -3.14,-0.65 -4.7,-0.95 -0.02,-0.66 -0.07,-1.97 -0.1,-2.63 4.66,-0.06 9.33,-0.08 13.99,0.05 -0.15,0.55 -0.45,1.66 -0.59,2.21 -2.52,1 -4.96,2.44 -6.19,4.97 -3.33,5.92 -7.12,11.6 -10.19,17.67 -1.37,4.94 -0.45,10.2 -0.45,15.28 1.76,0.38 3.54,0.74 5.33,1.09 0.01,0.68 0.03,2.03 0.04,2.71 -5.7,-0.01 -11.39,-0.01 -17.08,0 0.01,-0.68 0.03,-2.02 0.04,-2.7 1.75,-0.35 3.51,-0.71 5.27,-1.11 0.13,-4.51 0.77,-9.12 -0.17,-13.56 -1.82,-4.52 -4.72,-8.5 -6.98,-12.8 -2.59,-4.33 -4.4,-9.95 -9.78,-11.51 -0.12,-0.57 -0.38,-1.71 -0.51,-2.28 z"
       inkscape:connector-curvature="0" />
    <path
       transform="scale(0.8,0.8)"
       style="fill:#a88231;fill-opacity:1"
       id="path28"
       d="m 461.75,462.4375 c -2.09668,0.0539 -4.1875,0.32187 -6.21875,0.84375 -7.0875,1.7125 -13.5625,6.16875 -17.3125,12.46875 -3.9875,6.575 -4.80625,14.68125 -3.46875,22.15625 1.7875,9.475 8.7875,18 18.125,20.8125 8.55,2.575 18.4875,1.59375 25.75,-3.84375 14.625,-10.6625 15.10625,-35.64375 0.65625,-46.65625 -4.90312,-4.02187 -11.24121,-5.94297 -17.53125,-5.78125 z m 0.78125,3.71875 c 5.86934,-0.0305 11.78437,2.575 14.625,7.9375 6.025,11.0125 5.74375,25.91875 -2.03125,36.03125 -5.925,7.75 -18.475,8.06875 -25.25,1.28125 -7.2,-6.9125 -8.1625,-17.8375 -6.5625,-27.1875 1.1875,-7.475 5.91875,-14.91875 13.46875,-17.15625 1.83125,-0.5875 3.79355,-0.89609 5.75,-0.90625 z"
       inkscape:connector-curvature="0" />
    <path
       style="fill:#a88231;fill-opacity:1"
       id="path30"
       d="m 589.85,370.08 c 4.31,0.99 8.75,0.98 13.15,0.92 6.3,-0.11 12.67,0.44 18.88,-0.91 1.5,4.33 3.01,8.66 4.39,13.03 -0.95,0.22 -1.9,0.45 -2.84,0.68 -1.51,-3.01 -2.94,-6.36 -5.87,-8.26 -2.57,-1.61 -5.74,-1.44 -8.63,-1.7 -0.34,10.06 -0.04,20.13 -0.21,30.2 0.08,2.38 -0.19,4.91 0.81,7.15 1.47,0.55 3.01,0.88 4.54,1.28 0.07,0.63 0.22,1.89 0.29,2.52 -5.1,-0.08 -10.21,0.29 -15.3,-0.11 -0.62,-0.46 -1.88,-1.39 -2.51,-1.85 1.98,-0.7 3.99,-1.31 6,-1.93 0.58,-12.4 0.35,-24.83 0.14,-37.24 -3.01,0.25 -6.35,0.05 -8.89,1.96 -2.61,1.9 -3.99,4.92 -5.46,7.69 -0.69,0.03 -2.08,0.1 -2.77,0.14 1.01,-4.65 2.63,-9.12 4.28,-13.57 z"
       inkscape:connector-curvature="0" />
    <path
       transform="scale(0.8,0.8)"
       style="fill:#a88231;fill-opacity:1"
       id="path32"
       d="m 840.5,462.40625 c -2.09668,0.0545 -4.1875,0.35 -6.21875,0.875 -7.0875,1.7125 -13.5625,6.1875 -17.3125,12.5 -7.2875,12.3625 -4.85625,30.2625 6.96875,39 9.55,7.0625 23.8375,7.13125 33.4375,0.0937 14.625,-10.65 15.10625,-35.63125 0.65625,-46.65625 -4.90312,-4.02187 -11.24121,-5.97598 -17.53125,-5.8125 z m 0.78125,3.75 c 5.86934,-0.0305 11.78437,2.575 14.625,7.9375 6.025,11.025 5.74375,25.90625 -2.03125,36.03125 -5.925,7.7375 -18.475,8.06875 -25.25,1.28125 -7.2,-6.9125 -8.1625,-17.8375 -6.5625,-27.1875 1.1875,-7.475 5.91875,-14.91875 13.46875,-17.15625 1.83125,-0.5875 3.79355,-0.89609 5.75,-0.90625 z"
       inkscape:connector-curvature="0" />
    <path
       style="fill:#a88231;fill-opacity:1"
       id="path34"
       d="m 306.2,371.04 c 11.18,-0.07 22.37,-0.07 33.55,0 1.31,3.95 2.65,7.9 3.93,11.87 -0.61,0.27 -1.81,0.8 -2.42,1.06 -1.91,-3.53 -3.64,-7.98 -7.88,-9.22 -5.12,-1.34 -10.48,-0.55 -15.7,-0.73 -0.07,5.67 -0.08,11.34 0,17.01 2.95,-0.1 5.99,0.23 8.86,-0.62 2.99,-1.1 2.9,-4.84 3.74,-7.39 0.62,-0.01 1.86,-0.05 2.48,-0.06 0.03,6.03 0.04,12.06 -0.01,18.1 -0.6,-0.02 -1.8,-0.07 -2.4,-0.09 -0.68,-2.03 -0.96,-4.31 -2.36,-5.99 -3.22,-1.49 -6.89,-0.84 -10.31,-0.98 -0.08,5.66 -0.12,11.32 0.11,16.98 1.69,0.51 3.39,0.98 5.1,1.44 0.04,0.64 0.12,1.92 0.16,2.56 -5.63,0.04 -11.27,0.07 -16.91,-0.04 0.07,-0.61 0.22,-1.82 0.29,-2.43 1.72,-0.52 3.45,-1.05 5.16,-1.63 0.12,-12.05 0.41,-24.12 -0.17,-36.16 -1.69,-0.39 -3.38,-0.75 -5.06,-1.1 -0.04,-0.64 -0.12,-1.93 -0.16,-2.58 z"
       inkscape:connector-curvature="0" />
    <path
       style="fill:#a88231;fill-opacity:1"
       id="path36"
       d="m 397.2,371.05 c 5.67,-0.1 11.34,-0.04 17.02,-0.05 -0.06,0.66 -0.16,1.97 -0.22,2.63 -1.69,0.43 -3.37,0.88 -5.04,1.37 0.03,8.69 -0.24,17.4 0.07,26.09 0,4.12 2.46,8.04 6.28,9.68 7.11,3.74 17.8,-1.22 17.77,-9.75 0.16,-8.53 0.5,-17.13 -0.18,-25.64 -1.51,-0.92 -3.23,-1.37 -4.87,-1.93 -0.03,-0.62 -0.08,-1.84 -0.11,-2.45 5.06,0.01 10.13,-0.19 15.18,0.28 -1.31,2.18 -3.63,3.23 -5.79,4.37 -0.58,9.08 0.39,18.22 -0.54,27.27 -0.92,7.34 -7.82,12.68 -14.98,13.07 -7.94,0.84 -17.33,-3.91 -18.5,-12.44 -0.87,-9.59 0.27,-19.26 -0.67,-28.86 -1.76,-0.37 -3.52,-0.71 -5.28,-1.05 -0.03,-0.65 -0.1,-1.95 -0.14,-2.59 z"
       inkscape:connector-curvature="0" />
    <path
       style="fill:#a88231;fill-opacity:1"
       id="path38"
       d="m 447.64,371 c 4.43,-0.01 8.87,0 13.3,0 6.66,10.75 12.97,21.73 19.83,32.36 0.14,-9.29 0.18,-18.58 -0.03,-27.86 -2.2,-1.06 -4.61,-1.97 -5.84,-4.23 5.09,-0.46 10.21,-0.26 15.33,-0.26 -0.06,0.61 -0.19,1.83 -0.25,2.45 -1.56,0.66 -3.58,0.71 -4.71,2.09 -0.58,2.08 -0.51,4.26 -0.54,6.41 0.07,11.01 0.06,22.02 0.03,33.03 -1.26,0.01 -2.52,0.03 -3.78,0.06 -8.01,-13.03 -15.72,-26.25 -23.77,-39.25 -0.17,9.76 0,19.53 -0.12,29.29 0.08,1.94 -0.15,4.03 0.69,5.85 1.78,0.91 3.69,1.52 5.53,2.32 -1.29,0.89 -2.57,1.97 -4.25,1.77 -4.03,0.14 -8.07,0.03 -12.08,-0.34 1.31,-2.26 3.81,-3.09 6.06,-4.08 0.32,-11.18 0.23,-22.37 0.12,-33.54 0.44,-3.04 -3.27,-2.86 -5.23,-3.55 -0.07,-0.63 -0.22,-1.89 -0.29,-2.52 z"
       inkscape:connector-curvature="0" />
    <path
       transform="scale(0.8,0.8)"
       style="fill:#a88231;fill-opacity:1"
       id="path40"
       d="m 638.875,463.625 c -6.72656,0.006 -13.5,0.45 -20.15625,0.125 0.0125,0.8625 0.0187,2.575 0.0312,3.4375 2.2375,0.3375 4.48125,0.69375 6.71875,1.09375 0.4,15.2875 0.41875,30.5875 0.0312,45.875 -2.25,0.4125 -4.5125,0.8125 -6.75,1.1875 -0.0125,0.85 -0.05,2.54375 -0.0625,3.40625 9.625,-0.0625 19.2625,0.05 28.875,0 7.775,-0.075 16.3,-2.225 21.1875,-8.75 11.15,-13.4125 6.775,-37.31875 -10,-43.90625 -6.4625,-2.05 -13.14844,-2.475 -19.875,-2.46875 z m 4.5,3.8125 c 3.46406,0.0422 6.89375,0.3625 10.1875,1.5625 8.275,3.2625 13.03125,12.33125 12.84375,20.96875 0.3875,8.4 -2.09375,18.275 -9.90625,22.6875 -7.375,3.275 -15.6625,2.16875 -23.5,2.28125 0.0625,-15.775 0.0625,-31.5875 0,-47.375 3.425,0.0688 6.91094,-0.16719 10.375,-0.125 z"
       inkscape:connector-curvature="0" />
    <path
       transform="scale(0.8,0.8)"
       style="fill:#a88231;fill-opacity:1"
       id="path42"
       d="m 702.75,463.65625 c -5.7,14.95 -11.19375,29.975 -16.84375,44.9375 -1.425,4.1625 -5.23125,6.65 -8.03125,9.8125 5.7875,0.5125 11.59375,0.36875 17.40625,0.34375 -0.075,-0.8 -0.21875,-2.3875 -0.28125,-3.1875 -1.9,-0.65 -3.7625,-1.325 -5.625,-2 1.4875,-5.3875 3.4,-10.5875 5.1875,-15.875 6.4625,-0.25 12.9625,-0.175 19.4375,-0.1875 1.9625,5.2875 3.7875,10.61875 5.1875,16.09375 -1.8125,0.675 -3.625,1.33125 -5.4375,1.96875 l -0.28125,3.1875 c 6.7625,-0.025 13.51875,0.21875 20.28125,-0.28125 -3.05,-3.55 -6.975,-6.61875 -8.375,-11.28125 -5.3,-14.4375 -10.69375,-28.83125 -15.96875,-43.28125 -2.225,-0.1 -4.45625,-0.1875 -6.65625,-0.25 z m 1.6875,7.4375 c 2.75,7.5125 5.4,15.075 8.0625,22.625 -5.45,0.05 -10.89375,0.0375 -16.34375,0 2.65,-7.5875 5.25625,-15.175 8.28125,-22.625 z"
       inkscape:connector-curvature="0" />
    <path
       style="fill:#a88231;fill-opacity:1"
       id="path44"
       d="m 627.54,372.98 c 0.63,-0.46 1.89,-1.39 2.52,-1.86 5.04,-0.4 10.1,-0.03 15.16,-0.12 -0.06,0.66 -0.16,1.96 -0.21,2.62 -1.71,0.45 -3.4,0.93 -5.07,1.45 -0.33,9.32 -0.07,18.64 -0.21,27.96 0.04,2.46 -0.13,4.99 0.58,7.39 0.98,1.49 3.15,1.41 4.67,2.12 0.06,0.61 0.19,1.84 0.25,2.45 -5.06,-0.08 -10.13,0.28 -15.17,-0.11 -0.63,-0.47 -1.88,-1.4 -2.51,-1.87 2,-0.69 4.04,-1.28 6.07,-1.87 0.4,-12.08 0.4,-24.2 0,-36.28 -2.04,-0.6 -4.08,-1.2 -6.08,-1.88 z"
       inkscape:connector-curvature="0" />
    <path
       style="fill:#a88231;fill-opacity:1"
       id="path46"
       d="m 700.64,371 c 4.43,-0.01 8.87,0 13.3,0 6.66,10.75 12.97,21.73 19.84,32.36 0.13,-9.29 0.17,-18.58 -0.04,-27.87 -2.2,-1.04 -4.61,-1.95 -5.83,-4.22 5.09,-0.46 10.21,-0.26 15.32,-0.26 -0.06,0.61 -0.19,1.83 -0.25,2.44 -1.59,0.64 -3.52,0.78 -4.73,2.07 -0.55,2.1 -0.5,4.28 -0.52,6.43 0.07,11.01 0.06,22.03 0.03,33.04 -1.26,0.01 -2.52,0.03 -3.77,0.06 -8.03,-13.03 -15.73,-26.25 -23.78,-39.25 -0.17,9.76 0,19.52 -0.12,29.29 0.08,1.94 -0.17,4.04 0.7,5.85 1.78,0.91 3.68,1.52 5.52,2.32 -1.29,0.89 -2.58,1.97 -4.25,1.77 -4.03,0.13 -8.06,0.03 -12.07,-0.34 1.28,-2.28 3.79,-3.09 6.05,-4.08 0.32,-11.18 0.22,-22.37 0.13,-33.55 0.46,-3 -3.31,-2.83 -5.24,-3.56 -0.07,-0.62 -0.21,-1.87 -0.29,-2.5 z"
       inkscape:connector-curvature="0" />
  </g>
</svg>
